<svg width="414" height="736" viewBox="0 0 414 736" fill="none" xmlns="http://www.w3.org/2000/svg">
<g clip-path="url(#clip0)">
<rect width="414" height="736" fill="white"/>
<path fill-rule="evenodd" clip-rule="evenodd" d="M372.013 726.309C374.768 723.625 374.826 719.2 372.12 716.421C369.436 713.666 365.011 713.607 362.255 716.291C359.477 718.998 359.418 723.423 362.102 726.178C364.809 728.957 369.234 729.015 372.013 726.309ZM374.073 567.997C371.389 565.242 366.964 565.183 364.209 567.867C361.43 570.574 361.372 574.999 364.056 577.754C366.762 580.533 371.187 580.591 373.966 577.885C376.722 575.201 376.78 570.776 374.073 567.997ZM355.276 586.306C352.592 583.55 348.167 583.492 345.412 586.176C342.633 588.883 342.575 593.308 345.259 596.063C347.965 598.842 352.39 598.9 355.169 596.193C357.924 593.51 357.983 589.085 355.276 586.306ZM392.382 586.794C389.698 584.039 385.273 583.981 382.518 586.664C379.739 589.371 379.681 593.796 382.365 596.551C385.071 599.33 389.496 599.388 392.275 596.682C395.03 593.998 395.089 589.573 392.382 586.794ZM373.585 605.103C370.901 602.348 366.476 602.289 363.721 604.973C360.942 607.68 360.884 612.105 363.567 614.86C366.274 617.639 370.699 617.697 373.478 614.991C376.233 612.307 376.291 607.882 373.585 605.103ZM298.884 641.232C296.201 638.477 291.776 638.419 289.02 641.102C286.242 643.809 286.183 648.234 288.867 650.989C291.574 653.768 295.999 653.826 298.777 651.12C301.533 648.436 301.591 644.011 298.884 641.232ZM336.479 604.615C333.795 601.859 329.37 601.801 326.615 604.485C323.836 607.191 323.778 611.616 326.461 614.372C329.168 617.15 333.593 617.209 336.372 614.502C339.127 611.818 339.185 607.393 336.479 604.615ZM317.682 622.923C314.998 620.168 310.573 620.11 307.817 622.794C305.039 625.5 304.981 629.925 307.664 632.681C310.371 635.459 314.796 635.517 317.575 632.811C320.33 630.127 320.388 625.702 317.682 622.923ZM317.193 660.029C314.509 657.274 310.084 657.216 307.329 659.9C304.55 662.606 304.492 667.031 307.176 669.787C309.882 672.565 314.307 672.623 317.086 669.917C319.842 667.233 319.9 662.808 317.193 660.029ZM354.788 623.412C352.104 620.656 347.679 620.598 344.923 623.282C342.145 625.989 342.086 630.414 344.77 633.169C347.477 635.948 351.902 636.006 354.681 633.299C357.436 630.616 357.494 626.191 354.788 623.412ZM335.99 641.721C333.307 638.965 328.882 638.907 326.126 641.591C323.348 644.297 323.289 648.722 325.973 651.478C328.68 654.256 333.105 654.315 335.883 651.608C338.639 648.924 338.697 644.499 335.99 641.721ZM410.691 605.591C408.007 602.836 403.582 602.778 400.827 605.462C398.048 608.168 397.99 612.593 400.673 615.349C403.38 618.127 407.805 618.186 410.584 615.479C413.339 612.795 413.397 608.37 410.691 605.591ZM391.894 623.9C389.21 621.145 384.785 621.087 382.029 623.77C379.251 626.477 379.192 630.902 381.876 633.657C384.583 636.436 389.008 636.494 391.787 633.788C394.542 631.104 394.6 626.679 391.894 623.9ZM429 624.389C426.316 621.633 421.891 621.575 419.135 624.259C416.357 626.965 416.298 631.39 418.982 634.146C421.689 636.924 426.114 636.983 428.893 634.276C431.648 631.592 431.706 627.167 429 624.389ZM428.404 671.382C431.16 668.698 431.218 664.273 428.511 661.495C425.827 658.739 421.402 658.681 418.647 661.365C415.868 664.071 415.81 668.496 418.494 671.252C421.2 674.03 425.625 674.089 428.404 671.382ZM447.201 653.073C449.957 650.39 450.015 645.965 447.308 643.186C444.625 640.43 440.2 640.372 437.444 643.056C434.666 645.763 434.607 650.188 437.291 652.943C439.998 655.722 444.423 655.78 447.201 653.073ZM410.202 642.697C407.519 639.942 403.094 639.884 400.338 642.568C397.56 645.274 397.501 649.699 400.185 652.455C402.892 655.233 407.317 655.291 410.095 652.585C412.851 649.901 412.909 645.476 410.202 642.697ZM335.502 678.827C332.818 676.071 328.393 676.013 325.638 678.697C322.859 681.403 322.801 685.828 325.485 688.584C328.191 691.362 332.616 691.421 335.395 688.714C338.15 686.03 338.209 681.605 335.502 678.827ZM373.096 642.209C370.413 639.454 365.988 639.395 363.232 642.079C360.454 644.786 360.395 649.211 363.079 651.966C365.786 654.745 370.211 654.803 372.989 652.097C375.745 649.413 375.803 644.988 373.096 642.209ZM354.299 660.518C351.615 657.762 347.19 657.704 344.435 660.388C341.656 663.094 341.598 667.52 344.282 670.275C346.988 673.054 351.413 673.112 354.192 670.405C356.948 667.722 357.006 663.297 354.299 660.518ZM353.811 697.624C351.127 694.868 346.702 694.81 343.947 697.494C341.168 700.2 341.11 704.626 343.793 707.381C346.5 710.16 350.925 710.218 353.704 707.511C356.459 704.828 356.517 700.403 353.811 697.624ZM391.405 661.006C388.721 658.251 384.296 658.193 381.541 660.876C378.762 663.583 378.704 668.008 381.388 670.763C384.094 673.542 388.519 673.6 391.298 670.894C394.054 668.21 394.112 663.785 391.405 661.006ZM390.81 708C393.565 705.316 393.623 700.891 390.917 698.112C388.233 695.357 383.808 695.299 381.053 697.982C378.274 700.689 378.216 705.114 380.899 707.869C383.606 710.648 388.031 710.706 390.81 708ZM409.607 689.691C412.362 687.007 412.421 682.582 409.714 679.803C407.03 677.048 402.605 676.99 399.85 679.674C397.071 682.38 397.013 686.805 399.697 689.561C402.403 692.339 406.828 692.397 409.607 689.691ZM372.608 679.315C369.924 676.56 365.499 676.501 362.744 679.185C359.965 681.892 359.907 686.317 362.591 689.072C365.297 691.851 369.722 691.909 372.501 689.203C375.256 686.519 375.315 682.094 372.608 679.315Z" fill="#FFD93F" fill-opacity="0.29"/>
<path fill-rule="evenodd" clip-rule="evenodd" d="M-26.466 232.295C-23.9776 235.228 -19.567 235.59 -16.6091 233.08C-13.6761 230.592 -13.3144 226.181 -15.8028 223.248C-18.3124 220.29 -22.723 219.929 -25.656 222.417C-28.6138 224.927 -28.9755 229.337 -26.466 232.295ZM131.331 245.212C134.264 242.723 134.626 238.313 132.137 235.38C129.628 232.422 125.217 232.06 122.284 234.549C119.326 237.058 118.965 241.469 121.474 244.427C123.963 247.36 128.373 247.721 131.331 245.212ZM114.355 225.203C117.288 222.715 117.65 218.304 115.161 215.371C112.652 212.413 108.241 212.051 105.308 214.54C102.35 217.049 101.989 221.46 104.498 224.418C106.987 227.351 111.397 227.712 114.355 225.203ZM111.322 262.188C114.255 259.7 114.617 255.289 112.128 252.356C109.619 249.398 105.208 249.036 102.275 251.525C99.3174 254.034 98.9557 258.445 101.465 261.403C103.954 264.336 108.364 264.698 111.322 262.188ZM94.3461 242.179C97.2791 239.691 97.6408 235.28 95.1523 232.347C92.6428 229.389 88.2322 229.027 85.2992 231.516C82.3413 234.025 81.9797 238.436 84.4892 241.394C86.9776 244.327 91.3882 244.689 94.3461 242.179ZM63.4268 165.176C66.3598 162.688 66.7215 158.277 64.2331 155.344C61.7235 152.386 57.3129 152.024 54.3799 154.513C51.4221 157.022 51.0604 161.433 53.5699 164.391C56.0583 167.324 60.4689 167.686 63.4268 165.176ZM97.379 205.194C100.312 202.706 100.674 198.295 98.1852 195.362C95.6757 192.404 91.2651 192.042 88.3321 194.531C85.3742 197.04 85.0126 201.451 87.5221 204.409C90.0105 207.342 94.4211 207.703 97.379 205.194ZM80.4029 185.185C83.3359 182.697 83.6976 178.286 81.2091 175.353C78.6996 172.395 74.289 172.033 71.356 174.522C68.3982 177.031 68.0365 181.442 70.546 184.4C73.0344 187.333 77.445 187.694 80.4029 185.185ZM43.4178 182.152C46.3508 179.664 46.7125 175.253 44.2241 172.32C41.7146 169.362 37.3039 169.001 34.3709 171.489C31.4131 173.998 31.0514 178.409 33.5609 181.367C36.0493 184.3 40.46 184.662 43.4178 182.152ZM77.37 222.17C80.303 219.682 80.6647 215.271 78.1763 212.338C75.6667 209.38 71.2561 209.018 68.3231 211.507C65.3653 214.016 65.0036 218.427 67.5131 221.385C70.0015 224.318 74.4121 224.68 77.37 222.17ZM60.3939 202.161C63.3269 199.673 63.6886 195.262 61.2002 192.329C58.6907 189.371 54.28 189.009 51.347 191.498C48.3892 194.007 48.0275 198.418 50.537 201.376C53.0254 204.309 57.4361 204.671 60.3939 202.161ZM91.3132 279.164C94.2462 276.676 94.6079 272.265 92.1194 269.332C89.6099 266.374 85.1993 266.012 82.2663 268.501C79.3085 271.01 78.9468 275.421 81.4563 278.379C83.9447 281.312 88.3553 281.674 91.3132 279.164ZM74.3371 259.155C77.2701 256.667 77.6318 252.256 75.1434 249.323C72.6339 246.365 68.2232 246.004 65.2902 248.492C62.3324 251.001 61.9707 255.412 64.4802 258.37C66.9686 261.303 71.3793 261.665 74.3371 259.155ZM71.3042 296.14C74.2372 293.652 74.5989 289.241 72.1105 286.308C69.601 283.35 65.1903 282.989 62.2573 285.477C59.2995 287.987 58.9378 292.397 61.4473 295.355C63.9357 298.288 68.3464 298.65 71.3042 296.14ZM24.4622 292.322C26.9507 295.255 31.3613 295.617 34.3192 293.107C37.2521 290.619 37.6138 286.208 35.1254 283.275C32.6159 280.317 28.2053 279.956 25.2723 282.444C22.3144 284.954 21.9527 289.364 24.4622 292.322ZM41.4383 312.331C43.9267 315.264 48.3374 315.626 51.2952 313.116C54.2282 310.628 54.5899 306.217 52.1015 303.284C49.592 300.326 45.1813 299.965 42.2484 302.453C39.2905 304.963 38.9288 309.373 41.4383 312.331ZM54.3281 276.131C57.2611 273.643 57.6228 269.232 55.1344 266.299C52.6249 263.341 48.2142 262.98 45.2812 265.468C42.3234 267.978 41.9617 272.388 44.4712 275.346C46.9596 278.279 51.3703 278.641 54.3281 276.131ZM23.4088 199.128C26.3418 196.64 26.7035 192.229 24.2151 189.296C21.7056 186.338 17.295 185.977 14.362 188.465C11.4041 190.975 11.0424 195.385 13.5519 198.343C16.0404 201.276 20.451 201.638 23.4088 199.128ZM57.361 239.146C60.294 236.658 60.6557 232.247 58.1673 229.314C55.6578 226.356 51.2471 225.995 48.3141 228.483C45.3563 230.992 44.9946 235.403 47.5041 238.361C49.9925 241.294 54.4032 241.656 57.361 239.146ZM40.3849 219.137C43.3179 216.649 43.6796 212.238 41.1912 209.305C38.6817 206.347 34.271 205.986 31.338 208.474C28.3802 210.983 28.0185 215.394 30.528 218.352C33.0164 221.285 37.4271 221.647 40.3849 219.137ZM3.39987 216.104C6.33286 213.616 6.69455 209.205 4.20613 206.272C1.69662 203.314 -2.71402 202.953 -5.64701 205.441C-8.60486 207.951 -8.96655 212.361 -6.45704 215.319C-3.96862 218.252 0.442022 218.614 3.39987 216.104ZM37.352 256.122C40.285 253.634 40.6467 249.223 38.1583 246.29C35.6488 243.332 31.2382 242.971 28.3052 245.459C25.3473 247.969 24.9856 252.379 27.4951 255.337C29.9836 258.27 34.3942 258.632 37.352 256.122ZM-9.48993 252.304C-7.00151 255.237 -2.59087 255.599 0.366981 253.089C3.29997 250.601 3.66166 246.19 1.17324 243.257C-1.33627 240.299 -5.74691 239.938 -8.6799 242.426C-11.6378 244.936 -11.9994 249.346 -9.48993 252.304ZM7.48616 272.313C9.97458 275.246 14.3852 275.608 17.3431 273.098C20.2761 270.61 20.6377 266.199 18.1493 263.266C15.6398 260.308 11.2292 259.947 8.29618 262.435C5.33834 264.945 4.97665 269.355 7.48616 272.313ZM20.376 236.113C23.3089 233.625 23.6706 229.214 21.1822 226.281C18.6727 223.323 14.2621 222.962 11.3291 225.45C8.37123 227.96 8.00954 232.37 10.519 235.328C13.0075 238.261 17.4181 238.623 20.376 236.113Z" fill="#F3ECF6"/>
<path fill-rule="evenodd" clip-rule="evenodd" d="M184.425 119.363C185.756 121.668 188.715 122.46 191.039 121.118C193.344 119.787 194.137 116.828 192.805 114.523C191.463 112.199 188.505 111.406 186.2 112.738C183.875 114.08 183.083 117.038 184.425 119.363ZM290.263 147.694C292.568 146.363 293.36 143.405 292.029 141.1C290.687 138.775 287.728 137.983 285.423 139.314C283.099 140.656 282.306 143.615 283.649 145.939C284.98 148.244 287.938 149.037 290.263 147.694ZM281.182 131.969C283.487 130.638 284.279 127.68 282.948 125.375C281.606 123.05 278.648 122.258 276.342 123.589C274.018 124.931 273.226 127.89 274.568 130.214C275.899 132.519 278.857 133.312 281.182 131.969ZM274.538 156.775C276.843 155.444 277.635 152.486 276.304 150.181C274.962 147.856 272.003 147.064 269.698 148.395C267.374 149.737 266.581 152.696 267.924 155.02C269.255 157.325 272.213 158.118 274.538 156.775ZM265.457 141.05C267.762 139.719 268.554 136.761 267.223 134.456C265.881 132.131 262.923 131.339 260.617 132.67C258.293 134.012 257.501 136.971 258.843 139.295C260.174 141.6 263.132 142.392 265.457 141.05ZM253.939 84.7942C256.244 83.4631 257.037 80.5049 255.706 78.1999C254.363 75.8753 251.405 75.0829 249.1 76.4141C246.775 77.7564 245.983 80.7147 247.325 83.0392C248.656 85.3443 251.615 86.1366 253.939 84.7942ZM272.101 116.244C274.406 114.913 275.198 111.955 273.867 109.65C272.525 107.325 269.567 106.533 267.262 107.864C264.937 109.206 264.145 112.165 265.487 114.489C266.818 116.794 269.776 117.587 272.101 116.244ZM263.02 100.519C265.325 99.1881 266.118 96.2299 264.786 93.9249C263.444 91.6003 260.486 90.808 258.181 92.1391C255.856 93.4814 255.064 96.4397 256.406 98.7642C257.737 101.069 260.696 101.862 263.02 100.519ZM238.214 93.8751C240.519 92.544 241.312 89.5858 239.981 87.2807C238.638 84.9562 235.68 84.1638 233.375 85.4949C231.05 86.8373 230.258 89.7955 231.6 92.1201C232.931 94.4251 235.89 95.2175 238.214 93.8751ZM256.376 125.325C258.681 123.994 259.473 121.036 258.142 118.731C256.8 116.406 253.842 115.614 251.537 116.945C249.212 118.287 248.42 121.246 249.762 123.57C251.093 125.875 254.051 126.667 256.376 125.325ZM247.295 109.6C249.6 108.269 250.392 105.311 249.061 103.006C247.719 100.681 244.761 99.8888 242.456 101.22C240.131 102.562 239.339 105.521 240.681 107.845C242.012 110.15 244.971 110.942 247.295 109.6ZM258.813 165.856C261.118 164.525 261.91 161.567 260.579 159.262C259.237 156.937 256.278 156.145 253.973 157.476C251.649 158.818 250.856 161.776 252.199 164.101C253.53 166.406 256.488 167.198 258.813 165.856ZM249.732 150.131C252.037 148.8 252.829 145.842 251.498 143.537C250.156 141.212 247.198 140.42 244.892 141.751C242.568 143.093 241.776 146.051 243.118 148.376C244.449 150.681 247.407 151.473 249.732 150.131ZM243.088 174.937C245.393 173.606 246.185 170.648 244.854 168.342C243.512 166.018 240.553 165.226 238.248 166.557C235.924 167.899 235.131 170.857 236.474 173.182C237.805 175.487 240.763 176.279 243.088 174.937ZM211.668 166.538C212.999 168.843 215.957 169.635 218.282 168.293C220.587 166.962 221.379 164.003 220.048 161.698C218.706 159.374 215.747 158.581 213.442 159.913C211.118 161.255 210.326 164.213 211.668 166.538ZM220.749 182.263C222.08 184.568 225.038 185.36 227.363 184.018C229.668 182.687 230.46 179.728 229.129 177.423C227.787 175.099 224.828 174.306 222.523 175.638C220.199 176.98 219.406 179.938 220.749 182.263ZM234.007 159.212C236.312 157.881 237.104 154.923 235.773 152.617C234.431 150.293 231.472 149.501 229.167 150.832C226.843 152.174 226.051 155.132 227.393 157.457C228.724 159.762 231.682 160.554 234.007 159.212ZM222.489 102.956C224.794 101.625 225.587 98.6666 224.256 96.3616C222.913 94.037 219.955 93.2447 217.65 94.5758C215.325 95.9182 214.533 98.8764 215.875 101.201C217.206 103.506 220.165 104.298 222.489 102.956ZM240.651 134.406C242.956 133.075 243.748 130.117 242.417 127.812C241.075 125.487 238.117 124.695 235.812 126.026C233.487 127.368 232.695 130.326 234.037 132.651C235.368 134.956 238.326 135.748 240.651 134.406ZM231.57 118.681C233.875 117.35 234.667 114.392 233.336 112.087C231.994 109.762 229.036 108.97 226.731 110.301C224.406 111.643 223.614 114.601 224.956 116.926C226.287 119.231 229.246 120.023 231.57 118.681ZM206.764 112.037C209.069 110.706 209.862 107.747 208.53 105.442C207.188 103.118 204.23 102.326 201.925 103.657C199.6 104.999 198.808 107.957 200.15 110.282C201.481 112.587 204.44 113.379 206.764 112.037ZM224.926 143.487C227.231 142.156 228.023 139.198 226.692 136.892C225.35 134.568 222.392 133.776 220.087 135.107C217.762 136.449 216.97 139.407 218.312 141.732C219.643 144.037 222.601 144.829 224.926 143.487ZM193.506 135.088C194.837 137.393 197.796 138.185 200.12 136.843C202.425 135.512 203.217 132.553 201.886 130.248C200.544 127.924 197.586 127.131 195.281 128.463C192.956 129.805 192.164 132.763 193.506 135.088ZM202.587 150.813C203.918 153.118 206.876 153.91 209.201 152.568C211.506 151.237 212.298 148.278 210.967 145.973C209.625 143.649 206.667 142.856 204.362 144.188C202.037 145.53 201.245 148.488 202.587 150.813ZM215.845 127.762C218.15 126.431 218.942 123.472 217.611 121.167C216.269 118.843 213.311 118.051 211.006 119.382C208.681 120.724 207.889 123.682 209.231 126.007C210.562 128.312 213.521 129.104 215.845 127.762Z" fill="#FFEA9E" fill-opacity="0.46"/>
<path d="M114.292 26.608H121.942V35.924H129.184V26.608H136.868V50H129.184V40.82H121.942V50H114.292V26.608ZM149.689 57.786C148.442 57.786 147.252 57.6613 146.119 57.412L146.663 52.38C147.547 52.516 148.363 52.584 149.111 52.584C150.448 52.584 151.468 52.176 152.171 51.36C152.873 50.5667 153.236 49.0593 153.259 46.838C152.08 49.1047 150.187 50.238 147.581 50.238C145.382 50.238 143.659 49.4673 142.413 47.926C141.189 46.362 140.577 44.2087 140.577 41.466V32.966H147.717V42.52C147.717 43.2907 147.932 43.9367 148.363 44.458C148.793 44.9567 149.383 45.206 150.131 45.206C150.901 45.206 151.525 44.8773 152.001 44.22C152.499 43.5627 152.749 42.7013 152.749 41.636V32.966H159.923V45.682C159.923 49.626 159.039 52.6293 157.271 54.692C155.503 56.7547 152.975 57.786 149.689 57.786ZM163.424 33.204H170.598V36.162C171.686 33.8727 173.533 32.728 176.14 32.728C177.658 32.728 179.052 33.1133 180.322 33.884C181.614 34.632 182.622 35.6747 183.348 37.012C184.096 38.3493 184.47 39.8453 184.47 41.5C184.47 43.1547 184.084 44.6507 183.314 45.988C182.566 47.3253 181.546 48.3793 180.254 49.15C178.984 49.898 177.624 50.272 176.174 50.272C173.59 50.272 171.731 49.1273 170.598 46.838V54.42L163.424 55.78V33.204ZM173.998 44.9C174.927 44.9 175.72 44.56 176.378 43.88C177.035 43.2 177.364 42.4067 177.364 41.5C177.364 40.548 177.024 39.7433 176.344 39.086C175.686 38.4287 174.904 38.1 173.998 38.1C173.068 38.1 172.275 38.4287 171.618 39.086C170.96 39.7207 170.632 40.48 170.632 41.364V41.5C170.632 42.452 170.96 43.2567 171.618 43.914C172.298 44.5713 173.091 44.9 173.998 44.9ZM195.938 50.272C194.057 50.272 192.38 49.898 190.906 49.15C189.456 48.3793 188.322 47.3367 187.506 46.022C186.69 44.6847 186.282 43.1773 186.282 41.5C186.282 39.7773 186.702 38.2473 187.54 36.91C188.379 35.5727 189.512 34.5413 190.94 33.816C192.368 33.0907 193.955 32.728 195.7 32.728C197.378 32.728 198.806 33.102 199.984 33.85C201.186 34.5753 202.081 35.5727 202.67 36.842C203.26 38.0887 203.554 39.494 203.554 41.058C203.554 41.466 203.532 41.7607 203.486 41.942L193.286 43.268C193.558 44.0613 194 44.6393 194.612 45.002C195.224 45.342 196.029 45.512 197.026 45.512C198.568 45.512 200.234 45.1153 202.024 44.322L202.874 48.878C200.766 49.8073 198.454 50.272 195.938 50.272ZM198.284 38.984C197.922 37.556 197.06 36.842 195.7 36.842C194.884 36.842 194.238 37.148 193.762 37.76C193.286 38.372 193.037 39.1653 193.014 40.14L198.284 38.984ZM206.093 33.204H213.267V36.672C213.788 35.3347 214.491 34.3487 215.375 33.714C216.281 33.0567 217.335 32.728 218.537 32.728L219.523 38.27C217.369 38.27 215.783 38.508 214.763 38.984C213.765 39.4373 213.267 40.1627 213.267 41.16V50H206.093V33.204ZM234.617 50.272C232.011 50.272 230.163 49.1273 229.075 46.838V50H221.867V27.594L229.075 26.54V36.162C229.642 34.9607 230.379 34.088 231.285 33.544C232.192 33 233.291 32.728 234.583 32.728C236.102 32.728 237.496 33.1133 238.765 33.884C240.057 34.632 241.066 35.6747 241.791 37.012C242.539 38.3493 242.913 39.8453 242.913 41.5C242.913 43.132 242.528 44.6167 241.757 45.954C241.009 47.2913 239.989 48.3453 238.697 49.116C237.428 49.8867 236.068 50.272 234.617 50.272ZM232.441 44.9C233.371 44.9 234.164 44.56 234.821 43.88C235.479 43.2 235.807 42.4067 235.807 41.5C235.807 40.548 235.467 39.7433 234.787 39.086C234.13 38.4287 233.348 38.1 232.441 38.1C231.512 38.1 230.719 38.4287 230.061 39.086C229.404 39.7207 229.075 40.48 229.075 41.364V41.5C229.075 42.452 229.404 43.2567 230.061 43.914C230.741 44.5713 231.535 44.9 232.441 44.9ZM254.516 50.272C252.612 50.272 250.912 49.898 249.416 49.15C247.943 48.402 246.787 47.3707 245.948 46.056C245.132 44.7187 244.724 43.1887 244.724 41.466C244.724 39.7433 245.144 38.2247 245.982 36.91C246.821 35.5727 247.977 34.5413 249.45 33.816C250.946 33.0907 252.646 32.728 254.55 32.728C256.477 32.728 258.177 33.102 259.65 33.85C261.146 34.5753 262.302 35.5953 263.118 36.91C263.934 38.2247 264.342 39.7433 264.342 41.466C264.342 43.2113 263.923 44.7527 263.084 46.09C262.268 47.4047 261.112 48.436 259.616 49.184C258.143 49.9093 256.443 50.272 254.516 50.272ZM254.584 45.172C255.514 45.172 256.273 44.832 256.862 44.152C257.474 43.4493 257.78 42.554 257.78 41.466C257.78 40.378 257.474 39.494 256.862 38.814C256.273 38.1113 255.514 37.76 254.584 37.76C253.655 37.76 252.884 38.1113 252.272 38.814C251.683 39.494 251.388 40.378 251.388 41.466C251.388 42.554 251.683 43.4493 252.272 44.152C252.884 44.832 253.655 45.172 254.584 45.172ZM272.943 50.272C271.016 50.272 269.52 49.6713 268.455 48.47C267.412 47.246 266.891 45.58 266.891 43.472V27.594L274.065 26.54V42.962C274.065 43.5967 274.212 44.0613 274.507 44.356C274.824 44.628 275.368 44.764 276.139 44.764C276.706 44.764 277.261 44.628 277.805 44.356L278.043 49.116C276.524 49.8867 274.824 50.272 272.943 50.272ZM287.39 50.272C285.917 50.272 284.534 49.8867 283.242 49.116C281.973 48.3227 280.953 47.2573 280.182 45.92C279.412 44.56 279.026 43.0527 279.026 41.398C279.026 39.766 279.412 38.2927 280.182 36.978C280.953 35.6407 281.984 34.598 283.276 33.85C284.568 33.102 285.94 32.728 287.39 32.728C288.569 32.728 289.657 33.0567 290.654 33.714C291.674 34.3713 292.445 35.3573 292.966 36.672V32.728H300.106V50H292.966V46.838C291.833 49.1273 289.974 50.272 287.39 50.272ZM289.6 44.9C290.507 44.9 291.278 44.5827 291.912 43.948C292.57 43.2907 292.921 42.52 292.966 41.636V41.364C292.921 40.4573 292.558 39.6867 291.878 39.052C291.221 38.4173 290.462 38.1 289.6 38.1C288.648 38.1 287.832 38.44 287.152 39.12C286.495 39.7773 286.166 40.5707 286.166 41.5C286.166 42.452 286.506 43.2567 287.186 43.914C287.866 44.5713 288.671 44.9 289.6 44.9Z" fill="white"/>
</g>
<defs>
<clipPath id="clip0">
<rect width="414" height="736" fill="white"/>
</clipPath>
</defs>
</svg>
