<svg width="1440" height="1024" viewBox="0 0 1440 1024" fill="none" xmlns="http://www.w3.org/2000/svg">
<g clip-path="url(#clip0)">
<rect width="1440" height="1024" fill="white"/>
<path fill-rule="evenodd" clip-rule="evenodd" d="M318.51 674.58C320.998 671.647 320.636 667.236 317.679 664.727C314.745 662.238 310.335 662.6 307.846 665.533C305.337 668.491 305.699 672.902 308.632 675.39C311.59 677.9 316.001 677.538 318.51 674.58ZM305.542 516.787C302.609 514.299 298.198 514.66 295.71 517.594C293.2 520.552 293.562 524.962 296.495 527.45C299.453 529.96 303.864 529.598 306.373 526.64C308.861 523.707 308.5 519.296 305.542 516.787ZM288.566 536.797C285.633 534.308 281.223 534.67 278.734 537.603C276.225 540.561 276.587 544.972 279.52 547.46C282.478 549.969 286.888 549.608 289.398 546.65C291.886 543.717 291.524 539.306 288.566 536.797ZM325.551 533.762C322.618 531.274 318.208 531.636 315.719 534.569C313.21 537.527 313.572 541.938 316.505 544.426C319.463 546.935 323.873 546.573 326.383 543.615C328.871 540.682 328.509 536.272 325.551 533.762ZM308.576 553.772C305.643 551.284 301.232 551.645 298.744 554.579C296.234 557.536 296.596 561.947 299.529 564.435C302.487 566.945 306.898 566.583 309.407 563.625C311.896 560.692 311.534 556.281 308.576 553.772ZM237.64 596.825C234.707 594.337 230.296 594.699 227.808 597.632C225.299 600.59 225.661 605 228.594 607.489C231.552 609.998 235.962 609.636 238.472 606.678C240.96 603.745 240.598 599.335 237.64 596.825ZM271.591 556.806C268.658 554.318 264.247 554.68 261.759 557.613C259.249 560.571 259.611 564.981 262.544 567.47C265.502 569.979 269.913 569.617 272.422 566.659C274.911 563.726 274.549 559.316 271.591 556.806ZM254.616 576.816C251.682 574.327 247.272 574.689 244.784 577.622C242.274 580.58 242.636 584.991 245.569 587.479C248.527 589.989 252.938 589.627 255.447 586.669C257.935 583.736 257.573 579.325 254.616 576.816ZM257.65 613.801C254.717 611.312 250.306 611.674 247.818 614.607C245.308 617.565 245.67 621.976 248.603 624.464C251.561 626.974 255.972 626.612 258.481 623.654C260.97 620.721 260.608 616.31 257.65 613.801ZM291.601 573.782C288.667 571.293 284.257 571.655 281.768 574.588C279.259 577.546 279.621 581.957 282.554 584.445C285.512 586.954 289.923 586.593 292.432 583.635C294.92 580.702 294.558 576.291 291.601 573.782ZM274.625 593.791C271.692 591.303 267.281 591.665 264.793 594.598C262.284 597.556 262.646 601.966 265.579 604.455C268.537 606.964 272.947 606.602 275.457 603.644C277.945 600.711 277.583 596.301 274.625 593.791ZM345.561 550.738C342.628 548.249 338.217 548.611 335.729 551.544C333.219 554.502 333.581 558.913 336.514 561.401C339.472 563.911 343.883 563.549 346.392 560.591C348.881 557.658 348.519 553.247 345.561 550.738ZM328.585 570.747C325.652 568.259 321.242 568.621 318.753 571.554C316.244 574.512 316.606 578.922 319.539 581.411C322.497 583.92 326.908 583.558 329.417 580.6C331.905 577.667 331.543 573.257 328.585 570.747ZM365.57 567.713C362.637 565.225 358.227 565.587 355.738 568.52C353.229 571.478 353.591 575.888 356.524 578.377C359.482 580.886 363.892 580.524 366.402 577.566C368.89 574.633 368.528 570.222 365.57 567.713ZM369.436 614.551C371.924 611.618 371.563 607.207 368.605 604.698C365.672 602.21 361.261 602.572 358.773 605.505C356.263 608.463 356.625 612.873 359.558 615.362C362.516 617.871 366.927 617.509 369.436 614.551ZM386.411 594.542C388.9 591.608 388.538 587.198 385.58 584.688C382.647 582.2 378.236 582.562 375.748 585.495C373.239 588.453 373.6 592.864 376.533 595.352C379.491 597.861 383.902 597.499 386.411 594.542ZM348.595 587.723C345.662 585.234 341.251 585.596 338.763 588.529C336.254 591.487 336.615 595.898 339.549 598.386C342.506 600.896 346.917 600.534 349.427 597.576C351.915 594.643 351.553 590.232 348.595 587.723ZM277.659 630.776C274.726 628.288 270.316 628.65 267.827 631.583C265.318 634.541 265.68 638.951 268.613 641.44C271.571 643.949 275.981 643.587 278.491 640.629C280.979 637.696 280.617 633.285 277.659 630.776ZM311.61 590.757C308.677 588.269 304.266 588.63 301.778 591.563C299.269 594.521 299.631 598.932 302.564 601.42C305.522 603.93 309.932 603.568 312.442 600.61C314.93 597.677 314.568 593.266 311.61 590.757ZM294.635 610.766C291.702 608.278 287.291 608.64 284.803 611.573C282.293 614.531 282.655 618.942 285.588 621.43C288.546 623.939 292.957 623.578 295.466 620.62C297.955 617.686 297.593 613.276 294.635 610.766ZM297.669 647.751C294.736 645.263 290.325 645.625 287.837 648.558C285.328 651.516 285.689 655.927 288.622 658.415C291.58 660.924 295.991 660.562 298.5 657.605C300.989 654.671 300.627 650.261 297.669 647.751ZM331.62 607.732C328.687 605.244 324.276 605.606 321.788 608.539C319.278 611.497 319.64 615.907 322.573 618.396C325.531 620.905 329.942 620.543 332.451 617.585C334.939 614.652 334.578 610.242 331.62 607.732ZM335.485 654.57C337.974 651.637 337.612 647.227 334.654 644.717C331.721 642.229 327.31 642.591 324.822 645.524C322.312 648.482 322.674 652.892 325.607 655.381C328.565 657.89 332.976 657.528 335.485 654.57ZM352.461 634.561C354.949 631.628 354.587 627.217 351.629 624.708C348.696 622.219 344.286 622.581 341.797 625.514C339.288 628.472 339.65 632.883 342.583 635.371C345.541 637.881 349.951 637.519 352.461 634.561ZM314.644 627.742C311.711 625.254 307.301 625.615 304.812 628.548C302.303 631.506 302.665 635.917 305.598 638.405C308.556 640.915 312.966 640.553 315.476 637.595C317.964 634.662 317.602 630.251 314.644 627.742Z" fill="#FFD93F" fill-opacity="0.29"/>
<path fill-rule="evenodd" clip-rule="evenodd" d="M1025.64 434.206C1029.18 432.723 1030.86 428.628 1029.37 425.05C1027.89 421.501 1023.79 419.821 1020.24 421.305C1016.66 422.801 1014.98 426.895 1016.47 430.444C1017.96 434.023 1022.06 435.703 1025.64 434.206ZM1085.72 287.725C1084.24 284.176 1080.14 282.496 1076.59 283.98C1073.01 285.476 1071.33 289.57 1072.82 293.119C1074.31 296.698 1078.41 298.378 1081.99 296.881C1085.54 295.398 1087.22 291.303 1085.72 287.725ZM1061.51 297.847C1060.03 294.298 1055.93 292.618 1052.38 294.102C1048.8 295.598 1047.12 299.692 1048.61 303.241C1050.1 306.819 1054.2 308.499 1057.78 307.003C1061.33 305.519 1063.01 301.425 1061.51 297.847ZM1095.84 311.934C1094.36 308.385 1090.26 306.705 1086.71 308.189C1083.14 309.685 1081.46 313.779 1082.94 317.328C1084.44 320.907 1088.53 322.587 1092.11 321.091C1095.66 319.607 1097.34 315.513 1095.84 311.934ZM1071.63 322.056C1070.15 318.507 1066.05 316.827 1062.5 318.311C1058.93 319.807 1057.25 323.901 1058.73 327.45C1060.23 331.029 1064.32 332.709 1067.9 331.213C1071.45 329.729 1073.13 325.635 1071.63 322.056ZM988.881 328.212C987.398 324.663 983.303 322.983 979.755 324.467C976.176 325.963 974.496 330.058 975.98 333.606C977.476 337.185 981.57 338.865 985.149 337.369C988.698 335.885 990.378 331.791 988.881 328.212ZM1037.3 307.968C1035.82 304.42 1031.72 302.74 1028.17 304.223C1024.59 305.72 1022.91 309.814 1024.4 313.363C1025.89 316.941 1029.99 318.621 1033.57 317.125C1037.12 315.641 1038.8 311.547 1037.3 307.968ZM1013.09 318.09C1011.61 314.542 1007.51 312.862 1003.96 314.345C1000.39 315.842 998.705 319.936 1000.19 323.484C1001.69 327.063 1005.78 328.743 1009.36 327.247C1012.91 325.763 1014.59 321.669 1013.09 318.09ZM999.003 352.421C997.519 348.873 993.425 347.193 989.877 348.676C986.298 350.173 984.618 354.267 986.101 357.816C987.598 361.394 991.692 363.074 995.271 361.578C998.819 360.094 1000.5 356 999.003 352.421ZM1047.42 332.178C1045.94 328.629 1041.84 326.949 1038.3 328.433C1034.72 329.929 1033.04 334.023 1034.52 337.572C1036.02 341.151 1040.11 342.831 1043.69 341.334C1047.24 339.851 1048.92 335.757 1047.42 332.178ZM1023.21 342.3C1021.73 338.751 1017.63 337.071 1014.09 338.555C1010.51 340.051 1008.83 344.145 1010.31 347.694C1011.81 351.273 1015.9 352.953 1019.48 351.456C1023.03 349.973 1024.71 345.878 1023.21 342.3ZM1105.96 336.143C1104.48 332.595 1100.38 330.915 1096.84 332.398C1093.26 333.895 1091.58 337.989 1093.06 341.538C1094.56 345.116 1098.65 346.796 1102.23 345.3C1105.78 343.816 1107.46 339.722 1105.96 336.143ZM1081.75 346.265C1080.27 342.717 1076.18 341.037 1072.63 342.52C1069.05 344.017 1067.37 348.111 1068.85 351.659C1070.35 355.238 1074.44 356.918 1078.02 355.422C1081.57 353.938 1083.25 349.844 1081.75 346.265ZM1116.08 360.353C1114.6 356.804 1110.51 355.124 1106.96 356.608C1103.38 358.104 1101.7 362.198 1103.18 365.747C1104.68 369.326 1108.77 371.006 1112.35 369.51C1115.9 368.026 1117.58 363.932 1116.08 360.353ZM1098.26 403.841C1101.81 402.357 1103.49 398.263 1102 394.684C1100.51 391.135 1096.42 389.455 1092.87 390.939C1089.29 392.435 1087.61 396.53 1089.1 400.078C1090.59 403.657 1094.69 405.337 1098.26 403.841ZM1122.47 393.719C1126.02 392.235 1127.7 388.141 1126.21 384.562C1124.72 381.014 1120.63 379.334 1117.08 380.817C1113.5 382.314 1111.82 386.408 1113.3 389.956C1114.8 393.535 1118.9 395.215 1122.47 393.719ZM1091.88 370.475C1090.39 366.926 1086.3 365.246 1082.75 366.73C1079.17 368.226 1077.49 372.32 1078.97 375.869C1080.47 379.448 1084.56 381.128 1088.14 379.631C1091.69 378.148 1093.37 374.053 1091.88 370.475ZM1009.13 376.631C1007.64 373.082 1003.55 371.402 999.998 372.886C996.42 374.382 994.74 378.476 996.223 382.025C997.72 385.604 1001.81 387.284 1005.39 385.788C1008.94 384.304 1010.62 380.21 1009.13 376.631ZM1057.54 356.387C1056.06 352.838 1051.97 351.158 1048.42 352.642C1044.84 354.138 1043.16 358.233 1044.64 361.781C1046.14 365.36 1050.23 367.04 1053.81 365.544C1057.36 364.06 1059.04 359.966 1057.54 356.387ZM1033.33 366.509C1031.85 362.96 1027.76 361.28 1024.21 362.764C1020.63 364.26 1018.95 368.354 1020.43 371.903C1021.93 375.482 1026.02 377.162 1029.6 375.666C1033.15 374.182 1034.83 370.088 1033.33 366.509ZM1019.25 400.84C1017.76 397.292 1013.67 395.612 1010.12 397.095C1006.54 398.592 1004.86 402.686 1006.35 406.234C1007.84 409.813 1011.94 411.493 1015.51 409.997C1019.06 408.513 1020.74 404.419 1019.25 400.84ZM1067.67 380.597C1066.18 377.048 1062.09 375.368 1058.54 376.852C1054.96 378.348 1053.28 382.442 1054.76 385.991C1056.26 389.569 1060.35 391.249 1063.93 389.753C1067.48 388.27 1069.16 384.175 1067.67 380.597ZM1049.85 424.084C1053.39 422.601 1055.07 418.507 1053.58 414.928C1052.09 411.379 1048 409.699 1044.45 411.183C1040.87 412.679 1039.19 416.773 1040.68 420.322C1042.17 423.901 1046.27 425.581 1049.85 424.084ZM1074.06 413.963C1077.6 412.479 1079.28 408.385 1077.79 404.806C1076.3 401.257 1072.21 399.577 1068.66 401.061C1065.08 402.557 1063.4 406.651 1064.89 410.2C1066.38 413.779 1070.48 415.459 1074.06 413.963ZM1043.46 390.718C1041.97 387.17 1037.88 385.49 1034.33 386.973C1030.75 388.47 1029.07 392.564 1030.55 396.113C1032.05 399.691 1036.15 401.371 1039.72 399.875C1043.27 398.391 1044.95 394.297 1043.46 390.718Z" fill="#FFD93F" fill-opacity="0.29"/>
<path fill-rule="evenodd" clip-rule="evenodd" d="M993.347 1089.92C996.896 1088.43 998.576 1084.34 997.08 1080.76C995.596 1077.21 991.502 1075.53 987.953 1077.02C984.375 1078.51 982.695 1082.61 984.178 1086.15C985.675 1089.73 989.769 1091.41 993.347 1089.92ZM1053.43 943.436C1051.95 939.887 1047.85 938.207 1044.3 939.691C1040.72 941.187 1039.04 945.281 1040.53 948.83C1042.02 952.409 1046.12 954.089 1049.7 952.592C1053.25 951.109 1054.93 947.014 1053.43 943.436ZM1029.22 953.557C1027.74 950.009 1023.64 948.329 1020.09 949.812C1016.52 951.309 1014.84 955.403 1016.32 958.952C1017.82 962.53 1021.91 964.21 1025.49 962.714C1029.04 961.23 1030.72 957.136 1029.22 953.557ZM1063.55 967.645C1062.07 964.096 1057.97 962.416 1054.43 963.9C1050.85 965.396 1049.17 969.49 1050.65 973.039C1052.15 976.618 1056.24 978.298 1059.82 976.802C1063.37 975.318 1065.05 971.224 1063.55 967.645ZM1039.34 977.767C1037.86 974.218 1033.76 972.538 1030.22 974.022C1026.64 975.518 1024.96 979.612 1026.44 983.161C1027.94 986.74 1032.03 988.42 1035.61 986.924C1039.16 985.44 1040.84 981.346 1039.34 977.767ZM956.592 983.923C955.109 980.374 951.015 978.694 947.466 980.178C943.887 981.674 942.207 985.768 943.691 989.317C945.187 992.896 949.281 994.576 952.86 993.08C956.409 991.596 958.089 987.502 956.592 983.923ZM1005.01 963.679C1003.53 960.131 999.433 958.451 995.885 959.934C992.306 961.431 990.626 965.525 992.11 969.073C993.606 972.652 997.7 974.332 1001.28 972.836C1004.83 971.352 1006.51 967.258 1005.01 963.679ZM980.802 973.801C979.318 970.252 975.224 968.572 971.675 970.056C968.097 971.552 966.417 975.647 967.9 979.195C969.396 982.774 973.491 984.454 977.069 982.958C980.618 981.474 982.298 977.38 980.802 973.801ZM966.714 1008.13C965.231 1004.58 961.136 1002.9 957.588 1004.39C954.009 1005.88 952.329 1009.98 953.813 1013.53C955.309 1017.11 959.403 1018.79 962.982 1017.29C966.531 1015.81 968.211 1011.71 966.714 1008.13ZM1015.13 987.889C1013.65 984.34 1009.56 982.66 1006.01 984.144C1002.43 985.64 1000.75 989.734 1002.23 993.283C1003.73 996.862 1007.82 998.542 1011.4 997.045C1014.95 995.562 1016.63 991.468 1015.13 987.889ZM990.924 998.011C989.44 994.462 985.346 992.782 981.797 994.266C978.218 995.762 976.538 999.856 978.022 1003.4C979.518 1006.98 983.613 1008.66 987.191 1007.17C990.74 1005.68 992.42 1001.59 990.924 998.011ZM1073.67 991.854C1072.19 988.306 1068.1 986.626 1064.55 988.109C1060.97 989.606 1059.29 993.7 1060.77 997.249C1062.27 1000.83 1066.36 1002.51 1069.94 1001.01C1073.49 999.527 1075.17 995.433 1073.67 991.854ZM1049.46 1001.98C1047.98 998.428 1043.89 996.748 1040.34 998.231C1036.76 999.728 1035.08 1003.82 1036.56 1007.37C1038.06 1010.95 1042.15 1012.63 1045.73 1011.13C1049.28 1009.65 1050.96 1005.56 1049.46 1001.98ZM1083.8 1016.06C1082.31 1012.52 1078.22 1010.84 1074.67 1012.32C1071.09 1013.82 1069.41 1017.91 1070.89 1021.46C1072.39 1025.04 1076.48 1026.72 1080.06 1025.22C1083.61 1023.74 1085.29 1019.64 1083.8 1016.06ZM1065.98 1059.55C1069.52 1058.07 1071.2 1053.97 1069.71 1050.4C1068.22 1046.85 1064.13 1045.17 1060.58 1046.65C1057 1048.15 1055.32 1052.24 1056.81 1055.79C1058.3 1059.37 1062.4 1061.05 1065.98 1059.55ZM1090.19 1049.43C1093.73 1047.95 1095.41 1043.85 1093.92 1040.27C1092.43 1036.72 1088.34 1035.04 1084.79 1036.53C1081.21 1038.02 1079.53 1042.12 1081.02 1045.67C1082.51 1049.25 1086.61 1050.93 1090.19 1049.43ZM1059.59 1026.19C1058.1 1022.64 1054.01 1020.96 1050.46 1022.44C1046.88 1023.94 1045.2 1028.03 1046.68 1031.58C1048.18 1035.16 1052.27 1036.84 1055.85 1035.34C1059.4 1033.86 1061.08 1029.76 1059.59 1026.19ZM976.836 1032.34C975.352 1028.79 971.258 1027.11 967.71 1028.6C964.131 1030.09 962.451 1034.19 963.935 1037.74C965.431 1041.31 969.525 1042.99 973.104 1041.5C976.652 1040.01 978.332 1035.92 976.836 1032.34ZM1025.25 1012.1C1023.77 1008.55 1019.68 1006.87 1016.13 1008.35C1012.55 1009.85 1010.87 1013.94 1012.35 1017.49C1013.85 1021.07 1017.94 1022.75 1021.52 1021.25C1025.07 1019.77 1026.75 1015.68 1025.25 1012.1ZM1001.05 1022.22C999.562 1018.67 995.468 1016.99 991.919 1018.47C988.34 1019.97 986.66 1024.07 988.144 1027.61C989.64 1031.19 993.734 1032.87 997.313 1031.38C1000.86 1029.89 1002.54 1025.8 1001.05 1022.22ZM986.958 1056.55C985.474 1053 981.38 1051.32 977.831 1052.81C974.253 1054.3 972.573 1058.4 974.056 1061.95C975.553 1065.52 979.647 1067.2 983.226 1065.71C986.774 1064.22 988.454 1060.13 986.958 1056.55ZM1035.38 1036.31C1033.89 1032.76 1029.8 1031.08 1026.25 1032.56C1022.67 1034.06 1020.99 1038.15 1022.48 1041.7C1023.97 1045.28 1028.07 1046.96 1031.64 1045.46C1035.19 1043.98 1036.87 1039.89 1035.38 1036.31ZM1017.56 1079.8C1021.11 1078.31 1022.79 1074.22 1021.29 1070.64C1019.81 1067.09 1015.71 1065.41 1012.16 1066.89C1008.58 1068.39 1006.9 1072.48 1008.39 1076.03C1009.88 1079.61 1013.98 1081.29 1017.56 1079.8ZM1041.77 1069.67C1045.31 1068.19 1046.99 1064.1 1045.5 1060.52C1044.01 1056.97 1039.92 1055.29 1036.37 1056.77C1032.79 1058.27 1031.11 1062.36 1032.6 1065.91C1034.09 1069.49 1038.19 1071.17 1041.77 1069.67ZM1011.17 1046.43C1009.68 1042.88 1005.59 1041.2 1002.04 1042.68C998.462 1044.18 996.782 1048.27 998.266 1051.82C999.762 1055.4 1003.86 1057.08 1007.43 1055.59C1010.98 1054.1 1012.66 1050.01 1011.17 1046.43Z" fill="#FFD93F" fill-opacity="0.29"/>
<path fill-rule="evenodd" clip-rule="evenodd" d="M-25.6525 1066.92C-22.1038 1065.43 -20.4238 1061.34 -21.9201 1057.76C-23.4038 1054.21 -27.498 1052.53 -31.0467 1054.02C-34.6255 1055.51 -36.3055 1059.61 -34.8218 1063.15C-33.3255 1066.73 -29.2313 1068.41 -25.6525 1066.92ZM34.43 920.436C32.9463 916.887 28.8522 915.207 25.3035 916.691C21.7247 918.187 20.0447 922.281 21.5284 925.83C23.0247 929.409 27.1188 931.089 30.6976 929.593C34.2463 928.109 35.9263 924.015 34.43 920.436ZM10.2207 930.558C8.73696 927.009 4.6428 925.329 1.09409 926.813C-2.48469 928.309 -4.16469 932.403 -2.68099 935.952C-1.18472 939.531 2.90944 941.211 6.48822 939.714C10.0369 938.231 11.7169 934.137 10.2207 930.558ZM44.5519 944.645C43.0682 941.097 38.974 939.417 35.4253 940.9C31.8466 942.397 30.1666 946.491 31.6503 950.039C33.1465 953.618 37.2407 955.298 40.8195 953.802C44.3682 952.318 46.0482 948.224 44.5519 944.645ZM20.3425 954.767C18.8588 951.218 14.7646 949.538 11.2159 951.022C7.63716 952.518 5.95716 956.613 7.44086 960.161C8.93714 963.74 13.0313 965.42 16.6101 963.924C20.1588 962.44 21.8388 958.346 20.3425 954.767ZM-62.4075 960.923C-63.8912 957.375 -67.9854 955.695 -71.5341 957.178C-75.1129 958.675 -76.7929 962.769 -75.3092 966.317C-73.8129 969.896 -69.7187 971.576 -66.14 970.08C-62.5913 968.596 -60.9112 964.502 -62.4075 960.923ZM-13.9887 940.68C-15.4724 937.131 -19.5666 935.451 -23.1153 936.935C-26.6941 938.431 -28.3741 942.525 -26.8904 946.074C-25.3941 949.652 -21.3 951.332 -17.7212 949.836C-14.1725 948.353 -12.4925 944.258 -13.9887 940.68ZM-38.1981 950.801C-39.6818 947.253 -43.776 945.573 -47.3247 947.056C-50.9035 948.553 -52.5835 952.647 -51.0998 956.196C-49.6035 959.774 -45.5093 961.454 -41.9306 959.958C-38.3819 958.474 -36.7019 954.38 -38.1981 950.801ZM-52.2857 985.133C-53.7694 981.584 -57.8635 979.904 -61.4122 981.388C-64.991 982.884 -66.671 986.978 -65.1873 990.527C-63.691 994.106 -59.5969 995.786 -56.0181 994.289C-52.4694 992.806 -50.7894 988.711 -52.2857 985.133ZM-3.86688 964.889C-5.35058 961.34 -9.44475 959.66 -12.9935 961.144C-16.5722 962.64 -18.2522 966.734 -16.7685 970.283C-15.2723 973.862 -11.1781 975.542 -7.59932 974.046C-4.05061 972.562 -2.37061 968.468 -3.86688 964.889ZM-28.0763 975.011C-29.56 971.462 -33.6541 969.782 -37.2028 971.266C-40.7816 972.762 -42.4616 976.856 -40.9779 980.405C-39.4817 983.984 -35.3875 985.664 -31.8087 984.167C-28.26 982.684 -26.58 978.59 -28.0763 975.011ZM54.6738 968.855C53.1901 965.306 49.0959 963.626 45.5472 965.11C41.9684 966.606 40.2884 970.7 41.7721 974.249C43.2684 977.828 47.3625 979.508 50.9413 978.011C54.49 976.528 56.17 972.433 54.6738 968.855ZM30.4644 978.977C28.9807 975.428 24.8865 973.748 21.3378 975.231C17.759 976.728 16.079 980.822 17.5627 984.371C19.059 987.949 23.1531 989.629 26.7319 988.133C30.2806 986.649 31.9606 982.555 30.4644 978.977ZM64.7956 993.064C63.3119 989.515 59.2178 987.835 55.669 989.319C52.0903 990.815 50.4103 994.909 51.894 998.458C53.3902 1002.04 57.4844 1003.72 61.0632 1002.22C64.6119 1000.74 66.2919 996.643 64.7956 993.064ZM46.9756 1036.55C50.5243 1035.07 52.2043 1030.97 50.7081 1027.4C49.2244 1023.85 45.1302 1022.17 41.5815 1023.65C38.0027 1025.15 36.3227 1029.24 37.8064 1032.79C39.3027 1036.37 43.3969 1038.05 46.9756 1036.55ZM71.185 1026.43C74.7337 1024.95 76.4137 1020.85 74.9175 1017.27C73.4338 1013.72 69.3396 1012.04 65.7909 1013.53C62.2121 1015.02 60.5321 1019.12 62.0158 1022.67C63.5121 1026.25 67.6062 1027.93 71.185 1026.43ZM40.5862 1003.19C39.1025 999.637 35.0084 997.957 31.4596 999.441C27.8809 1000.94 26.2009 1005.03 27.6846 1008.58C29.1808 1012.16 33.275 1013.84 36.8538 1012.34C40.4025 1010.86 42.0825 1006.76 40.5862 1003.19ZM-42.1638 1009.34C-43.6475 1005.79 -47.7417 1004.11 -51.2904 1005.6C-54.8692 1007.09 -56.5492 1011.19 -55.0655 1014.74C-53.5692 1018.31 -49.475 1019.99 -45.8963 1018.5C-42.3475 1017.02 -40.6675 1012.92 -42.1638 1009.34ZM6.25497 989.098C4.77127 985.55 0.677109 983.87 -2.8716 985.353C-6.45038 986.85 -8.13038 990.944 -6.64668 994.492C-5.15041 998.071 -1.05625 999.751 2.52253 998.255C6.07124 996.771 7.75125 992.677 6.25497 989.098ZM-17.9544 999.22C-19.4381 995.672 -23.5323 993.992 -27.081 995.475C-30.6598 996.971 -32.3398 1001.07 -30.8561 1004.61C-29.3598 1008.19 -25.2656 1009.87 -21.6869 1008.38C-18.1382 1006.89 -16.4582 1002.8 -17.9544 999.22ZM-32.042 1033.55C-33.5257 1030 -37.6198 1028.32 -41.1685 1029.81C-44.7473 1031.3 -46.4273 1035.4 -44.9436 1038.95C-43.4473 1042.52 -39.3532 1044.2 -35.7744 1042.71C-32.2257 1041.22 -30.5457 1037.13 -32.042 1033.55ZM16.3768 1013.31C14.8931 1009.76 10.799 1008.08 7.25026 1009.56C3.67148 1011.06 1.99147 1015.15 3.47517 1018.7C4.97145 1022.28 9.06561 1023.96 12.6444 1022.46C16.1931 1020.98 17.8731 1016.89 16.3768 1013.31ZM-1.44315 1056.8C2.10555 1055.31 3.78556 1051.22 2.28928 1047.64C0.805583 1044.09 -3.28858 1042.41 -6.83728 1043.89C-10.4161 1045.39 -12.0961 1049.48 -10.6124 1053.03C-9.11609 1056.61 -5.02193 1058.29 -1.44315 1056.8ZM22.7662 1046.67C26.3149 1045.19 27.995 1041.1 26.4987 1037.52C25.015 1033.97 20.9208 1032.29 17.3721 1033.77C13.7933 1035.27 12.1133 1039.36 13.597 1042.91C15.0933 1046.49 19.1875 1048.17 22.7662 1046.67ZM-7.83257 1023.43C-9.31627 1019.88 -13.4104 1018.2 -16.9591 1019.68C-20.5379 1021.18 -22.2179 1025.28 -20.7342 1028.82C-19.2379 1032.4 -15.1438 1034.08 -11.565 1032.59C-8.0163 1031.1 -6.3363 1027.01 -7.83257 1023.43Z" fill="#FFD93F" fill-opacity="0.29"/>
<path fill-rule="evenodd" clip-rule="evenodd" d="M-26.466 232.295C-23.9776 235.228 -19.567 235.59 -16.6091 233.08C-13.6761 230.592 -13.3144 226.181 -15.8028 223.248C-18.3124 220.29 -22.723 219.929 -25.656 222.417C-28.6138 224.927 -28.9755 229.337 -26.466 232.295ZM131.331 245.212C134.264 242.723 134.626 238.313 132.137 235.38C129.628 232.422 125.217 232.06 122.284 234.549C119.326 237.058 118.965 241.469 121.474 244.427C123.963 247.36 128.373 247.721 131.331 245.212ZM114.355 225.203C117.288 222.715 117.65 218.304 115.161 215.371C112.652 212.413 108.241 212.051 105.308 214.54C102.35 217.049 101.989 221.46 104.498 224.418C106.987 227.351 111.397 227.712 114.355 225.203ZM111.322 262.188C114.255 259.7 114.617 255.289 112.128 252.356C109.619 249.398 105.208 249.036 102.275 251.525C99.3174 254.034 98.9557 258.445 101.465 261.403C103.954 264.336 108.364 264.698 111.322 262.188ZM94.3461 242.179C97.2791 239.691 97.6408 235.28 95.1523 232.347C92.6428 229.389 88.2322 229.027 85.2992 231.516C82.3413 234.025 81.9797 238.436 84.4892 241.394C86.9776 244.327 91.3882 244.689 94.3461 242.179ZM63.4268 165.176C66.3598 162.688 66.7215 158.277 64.2331 155.344C61.7235 152.386 57.3129 152.024 54.3799 154.513C51.4221 157.022 51.0604 161.433 53.5699 164.391C56.0583 167.324 60.4689 167.686 63.4268 165.176ZM97.379 205.194C100.312 202.706 100.674 198.295 98.1852 195.362C95.6757 192.404 91.2651 192.042 88.3321 194.531C85.3742 197.04 85.0126 201.451 87.5221 204.409C90.0105 207.342 94.4211 207.703 97.379 205.194ZM80.4029 185.185C83.3359 182.697 83.6976 178.286 81.2091 175.353C78.6996 172.395 74.289 172.033 71.356 174.522C68.3982 177.031 68.0365 181.442 70.546 184.4C73.0344 187.333 77.445 187.694 80.4029 185.185ZM43.4178 182.152C46.3508 179.664 46.7125 175.253 44.2241 172.32C41.7146 169.362 37.3039 169.001 34.3709 171.489C31.4131 173.998 31.0514 178.409 33.5609 181.367C36.0493 184.3 40.46 184.662 43.4178 182.152ZM77.37 222.17C80.303 219.682 80.6647 215.271 78.1763 212.338C75.6667 209.38 71.2561 209.018 68.3231 211.507C65.3653 214.016 65.0036 218.427 67.5131 221.385C70.0015 224.318 74.4121 224.68 77.37 222.17ZM60.3939 202.161C63.3269 199.673 63.6886 195.262 61.2002 192.329C58.6907 189.371 54.28 189.009 51.347 191.498C48.3892 194.007 48.0275 198.418 50.537 201.376C53.0254 204.309 57.4361 204.671 60.3939 202.161ZM91.3132 279.164C94.2462 276.676 94.6079 272.265 92.1195 269.332C89.6099 266.374 85.1993 266.012 82.2663 268.501C79.3085 271.01 78.9468 275.421 81.4563 278.379C83.9447 281.312 88.3553 281.674 91.3132 279.164ZM74.3371 259.155C77.2701 256.667 77.6318 252.256 75.1434 249.323C72.6339 246.365 68.2232 246.004 65.2902 248.492C62.3324 251.001 61.9707 255.412 64.4802 258.37C66.9686 261.303 71.3793 261.665 74.3371 259.155ZM71.3042 296.14C74.2372 293.652 74.5989 289.241 72.1105 286.308C69.601 283.35 65.1903 282.989 62.2573 285.477C59.2995 287.987 58.9378 292.397 61.4473 295.355C63.9357 298.288 68.3464 298.65 71.3042 296.14ZM24.4622 292.322C26.9507 295.255 31.3613 295.617 34.3192 293.107C37.2521 290.619 37.6138 286.208 35.1254 283.275C32.6159 280.317 28.2053 279.956 25.2723 282.444C22.3144 284.954 21.9527 289.364 24.4622 292.322ZM41.4383 312.331C43.9268 315.264 48.3374 315.626 51.2952 313.116C54.2282 310.628 54.5899 306.217 52.1015 303.284C49.592 300.326 45.1814 299.965 42.2484 302.453C39.2905 304.963 38.9288 309.373 41.4383 312.331ZM54.3281 276.131C57.2611 273.643 57.6228 269.232 55.1344 266.299C52.6249 263.341 48.2142 262.98 45.2812 265.468C42.3234 267.978 41.9617 272.388 44.4712 275.346C46.9596 278.279 51.3703 278.641 54.3281 276.131ZM23.4088 199.128C26.3418 196.64 26.7035 192.229 24.2151 189.296C21.7056 186.338 17.295 185.977 14.362 188.465C11.4041 190.975 11.0424 195.385 13.5519 198.343C16.0404 201.276 20.451 201.638 23.4088 199.128ZM57.361 239.146C60.294 236.658 60.6557 232.247 58.1673 229.314C55.6578 226.356 51.2471 225.995 48.3141 228.483C45.3563 230.992 44.9946 235.403 47.5041 238.361C49.9925 241.294 54.4032 241.656 57.361 239.146ZM40.3849 219.137C43.3179 216.649 43.6796 212.238 41.1912 209.305C38.6817 206.347 34.271 205.986 31.3381 208.474C28.3802 210.983 28.0185 215.394 30.528 218.352C33.0164 221.285 37.4271 221.647 40.3849 219.137ZM3.39987 216.104C6.33286 213.616 6.69455 209.205 4.20613 206.272C1.69662 203.314 -2.71402 202.953 -5.64701 205.441C-8.60486 207.951 -8.96655 212.361 -6.45704 215.319C-3.96862 218.252 0.442022 218.614 3.39987 216.104ZM37.352 256.122C40.285 253.634 40.6467 249.223 38.1583 246.29C35.6488 243.332 31.2382 242.971 28.3052 245.459C25.3473 247.969 24.9856 252.379 27.4951 255.337C29.9836 258.27 34.3942 258.632 37.352 256.122ZM-9.48993 252.304C-7.00151 255.237 -2.59087 255.599 0.36698 253.089C3.29997 250.601 3.66166 246.19 1.17324 243.257C-1.33627 240.299 -5.74691 239.938 -8.6799 242.426C-11.6377 244.936 -11.9994 249.346 -9.48993 252.304ZM7.48616 272.313C9.97458 275.246 14.3852 275.608 17.3431 273.098C20.2761 270.61 20.6377 266.199 18.1493 263.266C15.6398 260.308 11.2292 259.947 8.29619 262.435C5.33834 264.945 4.97665 269.355 7.48616 272.313ZM20.376 236.113C23.3089 233.625 23.6706 229.214 21.1822 226.281C18.6727 223.323 14.2621 222.962 11.3291 225.45C8.37123 227.96 8.00954 232.37 10.519 235.328C13.0075 238.261 17.4181 238.623 20.376 236.113Z" fill="#F3ECF6"/>
<path fill-rule="evenodd" clip-rule="evenodd" d="M1333.04 56.9668C1335.17 59.4764 1338.83 59.8766 1341.23 57.8418C1343.61 55.8241 1343.81 52.1409 1341.68 49.6313C1339.54 47.1005 1335.87 46.7003 1333.49 48.718C1331.09 50.7528 1330.89 54.436 1333.04 56.9668ZM1464.23 71.2648C1466.61 69.2471 1466.81 65.5639 1464.68 63.0543C1462.53 60.5234 1458.87 60.1233 1456.49 62.1409C1454.09 64.1757 1453.89 67.8589 1456.03 70.3898C1458.16 72.8994 1461.83 73.2996 1464.23 71.2648ZM1449.7 54.1443C1452.08 52.1266 1452.28 48.4434 1450.15 45.9338C1448.01 43.403 1444.34 43.0028 1441.96 45.0205C1439.56 47.0553 1439.36 50.7385 1441.51 53.2693C1443.64 55.7789 1447.3 56.1791 1449.7 54.1443ZM1448 85.0295C1450.38 83.0118 1450.59 79.3286 1448.46 76.819C1446.31 74.2882 1442.64 73.888 1440.26 75.9057C1437.87 77.9405 1437.66 81.6237 1439.81 84.1545C1441.94 86.6641 1445.61 87.0643 1448 85.0295ZM1433.48 67.909C1435.86 65.8913 1436.06 62.2081 1433.93 59.6986C1431.78 57.1677 1428.12 56.7675 1425.74 58.7852C1423.34 60.82 1423.14 64.5032 1425.28 67.034C1427.41 69.5436 1431.08 69.9438 1433.48 67.909ZM1406.13 2.78292C1408.51 0.765232 1408.71 -2.91797 1406.58 -5.42755C1404.43 -7.9584 1400.76 -8.35859 1398.39 -6.3409C1395.99 -4.30612 1395.79 -0.622918 1397.93 1.90793C1400.06 4.41752 1403.73 4.8177 1406.13 2.78292ZM1435.18 37.0238C1437.56 35.0062 1437.76 31.323 1435.63 28.8134C1433.48 26.2825 1429.82 25.8823 1427.44 27.9C1425.04 29.9348 1424.84 33.618 1426.98 36.1489C1429.11 38.6584 1432.78 39.0586 1435.18 37.0238ZM1420.65 19.9034C1423.03 17.8857 1423.23 14.2025 1421.1 11.6929C1418.96 9.16206 1415.29 8.76187 1412.91 10.7796C1410.51 12.8143 1410.31 16.4975 1412.46 19.0284C1414.59 21.538 1418.25 21.9382 1420.65 19.9034ZM1389.9 16.5476C1392.28 14.53 1392.48 10.8468 1390.35 8.33717C1388.21 5.80632 1384.54 5.40613 1382.16 7.42382C1379.76 9.45861 1379.56 13.1418 1381.71 15.6727C1383.84 18.1822 1387.5 18.5824 1389.9 16.5476ZM1418.95 50.7886C1421.33 48.7709 1421.53 45.0877 1419.41 42.5781C1417.26 40.0472 1413.59 39.6471 1411.21 41.6647C1408.81 43.6995 1408.61 47.3827 1410.76 49.9136C1412.89 52.4232 1416.56 52.8234 1418.95 50.7886ZM1404.43 33.6681C1406.81 31.6504 1407.01 27.9672 1404.88 25.4576C1402.73 22.9268 1399.07 22.5266 1396.69 24.5443C1394.29 26.5791 1394.09 30.2623 1396.23 32.7931C1398.36 35.3027 1402.03 35.7029 1404.43 33.6681ZM1431.78 98.7942C1434.16 96.7765 1434.36 93.0933 1432.23 90.5837C1430.09 88.0529 1426.42 87.6527 1424.04 89.6704C1421.64 91.7052 1421.44 95.3884 1423.59 97.9192C1425.72 100.429 1429.38 100.829 1431.78 98.7942ZM1417.26 81.6738C1419.63 79.6561 1419.84 75.9729 1417.71 73.4633C1415.56 70.9324 1411.89 70.5322 1409.51 72.5499C1407.12 74.5847 1406.91 78.2679 1409.06 80.7988C1411.19 83.3084 1414.86 83.7085 1417.26 81.6738ZM1415.56 112.559C1417.94 110.541 1418.14 106.858 1416.01 104.348C1413.86 101.818 1410.19 101.417 1407.82 103.435C1405.42 105.47 1405.22 109.153 1407.36 111.684C1409.49 114.194 1413.16 114.594 1415.56 112.559ZM1376.61 108.328C1378.74 110.838 1382.41 111.238 1384.81 109.203C1387.19 107.186 1387.39 103.502 1385.26 100.993C1383.11 98.4619 1379.44 98.0617 1377.07 100.079C1374.67 102.114 1374.47 105.797 1376.61 108.328ZM1391.14 125.449C1393.27 127.958 1396.93 128.358 1399.33 126.324C1401.71 124.306 1401.91 120.623 1399.78 118.113C1397.64 115.582 1393.97 115.182 1391.59 117.2C1389.19 119.235 1388.99 122.918 1391.14 125.449ZM1401.03 95.4385C1403.41 93.4208 1403.61 89.7376 1401.48 87.228C1399.34 84.6972 1395.67 84.297 1393.29 86.3147C1390.89 88.3494 1390.69 92.0326 1392.84 94.5635C1394.97 97.0731 1398.63 97.4733 1401.03 95.4385ZM1373.68 30.3124C1376.06 28.2947 1376.26 24.6115 1374.13 22.1019C1371.98 19.571 1368.32 19.1709 1365.94 21.1885C1363.54 23.2233 1363.34 26.9065 1365.48 29.4374C1367.61 31.947 1371.28 32.3472 1373.68 30.3124ZM1402.73 64.5533C1405.11 62.5356 1405.31 58.8524 1403.18 56.3428C1401.03 53.812 1397.37 53.4118 1394.99 55.4295C1392.59 57.4643 1392.39 61.1475 1394.54 63.6783C1396.66 66.1879 1400.33 66.5881 1402.73 64.5533ZM1388.2 47.4328C1390.58 45.4151 1390.79 41.7319 1388.66 39.2224C1386.51 36.6915 1382.84 36.2913 1380.46 38.309C1378.07 40.3438 1377.86 44.027 1380.01 46.5578C1382.14 49.0674 1385.81 49.4676 1388.2 47.4328ZM1357.46 44.0771C1359.83 42.0594 1360.04 38.3762 1357.91 35.8666C1355.76 33.3358 1352.09 32.9356 1349.71 34.9533C1347.32 36.9881 1347.11 40.6713 1349.26 43.2021C1351.39 45.7117 1355.06 46.1119 1357.46 44.0771ZM1386.51 78.318C1388.88 76.3003 1389.09 72.6171 1386.96 70.1075C1384.81 67.5767 1381.14 67.1765 1378.77 69.1942C1376.37 71.229 1376.16 74.9122 1378.31 77.443C1380.44 79.9526 1384.11 80.3528 1386.51 78.318ZM1347.56 74.0873C1349.69 76.5969 1353.36 76.9971 1355.76 74.9623C1358.13 72.9446 1358.34 69.2614 1356.21 66.7518C1354.06 64.221 1350.39 63.8208 1348.02 65.8385C1345.62 67.8732 1345.42 71.5564 1347.56 74.0873ZM1362.09 91.2078C1364.22 93.7173 1367.88 94.1175 1370.28 92.0827C1372.66 90.0651 1372.86 86.3819 1370.73 83.8723C1368.59 81.3414 1364.92 80.9412 1362.54 82.9589C1360.14 84.9937 1359.94 88.6769 1362.09 91.2078ZM1371.98 61.1976C1374.36 59.1799 1374.56 55.4967 1372.43 52.9871C1370.28 50.4562 1366.62 50.056 1364.24 52.0737C1361.84 54.1085 1361.64 57.7917 1363.79 60.3226C1365.92 62.8322 1369.58 63.2323 1371.98 61.1976Z" fill="#F3ECF6"/>
<path fill-rule="evenodd" clip-rule="evenodd" d="M598.305 144.023C601.763 148.099 607.944 148.558 612.118 145.017C616.257 141.505 616.811 135.332 613.353 131.255C609.865 127.145 603.684 126.685 599.545 130.197C595.371 133.738 594.817 139.912 598.305 144.023ZM819.441 160.424C823.58 156.912 824.134 150.739 820.676 146.662C817.188 142.551 811.007 142.092 806.868 145.604C802.694 149.145 802.14 155.319 805.628 159.429C809.086 163.506 815.267 163.965 819.441 160.424ZM795.848 132.615C799.987 129.103 800.541 122.93 797.082 118.854C793.594 114.743 787.413 114.283 783.274 117.795C779.1 121.337 778.546 127.51 782.034 131.621C785.493 135.697 791.674 136.156 795.848 132.615ZM791.204 184.381C795.343 180.869 795.897 174.696 792.439 170.619C788.951 166.508 782.77 166.049 778.631 169.561C774.457 173.102 773.903 179.276 777.391 183.387C780.849 187.463 787.03 187.922 791.204 184.381ZM767.611 156.572C771.75 153.06 772.303 146.887 768.845 142.811C765.357 138.7 759.176 138.24 755.037 141.752C750.863 145.294 750.309 151.467 753.797 155.578C757.255 159.654 763.436 160.113 767.611 156.572ZM725.067 49.1886C729.206 45.6769 729.76 39.5036 726.301 35.4273C722.814 31.3164 716.633 30.8571 712.493 34.3688C708.319 37.9102 707.766 44.0836 711.253 48.1944C714.712 52.2707 720.893 52.7301 725.067 49.1886ZM772.254 104.806C776.393 101.294 776.947 95.1211 773.489 91.0448C770.001 86.9339 763.82 86.4746 759.681 89.9863C755.506 93.5278 754.953 99.7011 758.44 103.812C761.899 107.888 768.08 108.348 772.254 104.806ZM748.661 76.9974C752.8 73.4856 753.353 67.3123 749.895 63.236C746.407 59.1252 740.226 58.6658 736.087 62.1775C731.913 65.719 731.359 71.8923 734.847 76.0032C738.305 80.0795 744.486 80.5388 748.661 76.9974ZM696.83 73.1456C700.969 69.6339 701.523 63.4606 698.064 59.3843C694.576 55.2734 688.395 54.8141 684.256 58.3258C680.082 61.8673 679.528 68.0406 683.016 72.1515C686.475 76.2278 692.656 76.6871 696.83 73.1456ZM744.017 128.763C748.156 125.251 748.71 119.078 745.251 115.002C741.764 110.891 735.583 110.432 731.444 113.943C727.269 117.485 726.716 123.658 730.203 127.769C733.662 131.845 739.843 132.305 744.017 128.763ZM720.423 100.954C724.563 97.4427 725.116 91.2694 721.658 87.1931C718.17 83.0822 711.989 82.6229 707.85 86.1346C703.676 89.6761 703.122 95.8494 706.61 99.9602C710.068 104.037 716.249 104.496 720.423 100.954ZM762.967 208.338C767.106 204.826 767.66 198.653 764.202 194.576C760.714 190.466 754.533 190.006 750.394 193.518C746.219 197.059 745.666 203.233 749.153 207.344C752.612 211.42 758.793 211.879 762.967 208.338ZM739.373 180.529C743.513 177.017 744.066 170.844 740.608 166.768C737.12 162.657 730.939 162.197 726.8 165.709C722.626 169.251 722.072 175.424 725.56 179.535C729.018 183.611 735.199 184.07 739.373 180.529ZM734.73 232.295C738.869 228.783 739.423 222.61 735.964 218.533C732.477 214.423 726.296 213.963 722.156 217.475C717.982 221.016 717.429 227.19 720.916 231.301C724.375 235.377 730.556 235.836 734.73 232.295ZM669.086 227.449C672.544 231.525 678.725 231.985 682.899 228.443C687.038 224.931 687.592 218.758 684.134 214.682C680.646 210.571 674.465 210.112 670.326 213.623C666.152 217.165 665.598 223.338 669.086 227.449ZM692.679 255.258C696.138 259.334 702.319 259.793 706.493 256.252C710.632 252.74 711.186 246.567 707.727 242.49C704.239 238.38 698.058 237.92 693.919 241.432C689.745 244.974 689.191 251.147 692.679 255.258ZM711.136 204.486C715.275 200.974 715.829 194.801 712.371 190.725C708.883 186.614 702.702 186.154 698.563 189.666C694.389 193.208 693.835 199.381 697.323 203.492C700.781 207.568 706.962 208.028 711.136 204.486ZM668.593 97.1027C672.732 93.591 673.286 87.4177 669.827 83.3414C666.339 79.2305 660.158 78.7712 656.019 82.2829C651.845 85.8244 651.291 91.9977 654.779 96.1085C658.237 100.185 664.418 100.644 668.593 97.1027ZM715.78 152.72C719.919 149.209 720.473 143.035 717.014 138.959C713.527 134.848 707.345 134.389 703.206 137.9C699.032 141.442 698.478 147.615 701.966 151.726C705.425 155.802 711.606 156.262 715.78 152.72ZM692.186 124.911C696.325 121.4 696.879 115.226 693.421 111.15C689.933 107.039 683.752 106.58 679.613 110.092C675.439 113.633 674.885 119.806 678.373 123.917C681.831 127.994 688.012 128.453 692.186 124.911ZM640.356 121.06C644.495 117.548 645.048 111.375 641.59 107.298C638.102 103.188 631.921 102.728 627.782 106.24C623.608 109.781 623.054 115.955 626.542 120.066C630 124.142 636.181 124.601 640.356 121.06ZM687.543 176.677C691.682 173.166 692.236 166.992 688.777 162.916C685.289 158.805 679.108 158.346 674.969 161.857C670.795 165.399 670.241 171.572 673.729 175.683C677.187 179.759 683.369 180.219 687.543 176.677ZM621.898 171.831C625.357 175.908 631.538 176.367 635.712 172.826C639.851 169.314 640.405 163.141 636.946 159.064C633.459 154.953 627.278 154.494 623.138 158.006C618.964 161.547 618.411 167.721 621.898 171.831ZM645.492 199.64C648.95 203.716 655.131 204.176 659.306 200.634C663.445 197.123 663.998 190.949 660.54 186.873C657.052 182.762 650.871 182.303 646.732 185.815C642.558 189.356 642.004 195.529 645.492 199.64ZM663.949 148.869C668.088 145.357 668.642 139.183 665.184 135.107C661.696 130.996 655.515 130.537 651.376 134.049C647.201 137.59 646.648 143.763 650.135 147.874C653.594 151.951 659.775 152.41 663.949 148.869Z" fill="#F3ECF6"/>
<path fill-rule="evenodd" clip-rule="evenodd" d="M504.685 935.2C508.46 934.463 510.931 930.792 510.187 926.985C509.45 923.21 505.779 920.738 502.004 921.476C498.197 922.22 495.725 925.891 496.463 929.666C497.207 933.473 500.878 935.944 504.685 935.2ZM593.075 803.846C592.338 800.071 588.666 797.6 584.891 798.337C581.084 799.081 578.613 802.752 579.351 806.527C580.094 810.334 583.766 812.806 587.573 812.062C591.348 811.324 593.819 807.653 593.075 803.846ZM567.322 808.877C566.584 805.102 562.913 802.631 559.138 803.369C555.331 804.113 552.86 807.784 553.597 811.559C554.341 815.366 558.012 817.837 561.819 817.093C565.594 816.356 568.066 812.685 567.322 808.877ZM598.106 829.599C597.369 825.824 593.698 823.353 589.923 824.091C586.116 824.835 583.645 828.506 584.382 832.281C585.126 836.088 588.797 838.559 592.604 837.815C596.379 837.078 598.85 833.406 598.106 829.599ZM572.353 834.631C571.616 830.856 567.944 828.385 564.169 829.122C560.362 829.866 557.891 833.537 558.629 837.312C559.373 841.119 563.044 843.59 566.851 842.847C570.626 842.109 573.097 838.438 572.353 834.631ZM490.062 823.971C489.324 820.196 485.653 817.725 481.878 818.463C478.071 819.207 475.6 822.878 476.338 826.653C477.081 830.46 480.753 832.931 484.56 832.187C488.335 831.45 490.806 827.779 490.062 823.971ZM541.569 813.909C540.831 810.134 537.16 807.663 533.385 808.4C529.578 809.144 527.107 812.815 527.844 816.59C528.588 820.397 532.259 822.868 536.066 822.125C539.841 821.387 542.312 817.716 541.569 813.909ZM515.815 818.94C515.078 815.165 511.407 812.694 507.632 813.431C503.825 814.175 501.353 817.846 502.091 821.621C502.835 825.428 506.506 827.9 510.313 827.156C514.088 826.418 516.559 822.747 515.815 818.94ZM495.093 849.725C494.356 845.95 490.685 843.479 486.91 844.216C483.103 844.96 480.631 848.631 481.369 852.406C482.113 856.213 485.784 858.684 489.591 857.941C493.366 857.203 495.837 853.532 495.093 849.725ZM546.6 839.662C545.862 835.887 542.191 833.416 538.416 834.153C534.609 834.897 532.138 838.568 532.875 842.343C533.619 846.15 537.29 848.622 541.097 847.878C544.872 847.14 547.344 843.469 546.6 839.662ZM520.847 844.693C520.109 840.918 516.438 838.447 512.663 839.185C508.856 839.929 506.385 843.6 507.122 847.375C507.866 851.182 511.537 853.653 515.344 852.909C519.119 852.172 521.59 848.5 520.847 844.693ZM603.138 855.353C602.4 851.578 598.729 849.107 594.954 849.844C591.147 850.588 588.676 854.259 589.413 858.034C590.157 861.841 593.828 864.312 597.635 863.568C601.41 862.831 603.882 859.16 603.138 855.353ZM577.385 860.384C576.647 856.609 572.976 854.138 569.201 854.875C565.394 855.619 562.923 859.29 563.66 863.065C564.404 866.872 568.075 869.344 571.882 868.6C575.657 867.862 578.128 864.191 577.385 860.384ZM608.169 881.106C607.432 877.331 603.76 874.86 599.985 875.597C596.178 876.341 593.707 880.012 594.445 883.787C595.188 887.594 598.86 890.066 602.667 889.322C606.442 888.584 608.913 884.913 608.169 881.106ZM581.945 920.106C585.72 919.369 588.191 915.698 587.447 911.891C586.71 908.116 583.038 905.644 579.263 906.382C575.456 907.126 572.985 910.797 573.723 914.572C574.467 918.379 578.138 920.85 581.945 920.106ZM607.698 915.075C611.473 914.338 613.944 910.666 613.2 906.859C612.463 903.084 608.792 900.613 605.017 901.351C601.21 902.094 598.739 905.766 599.476 909.541C600.22 913.348 603.891 915.819 607.698 915.075ZM582.416 886.137C581.678 882.362 578.007 879.891 574.232 880.629C570.425 881.372 567.954 885.044 568.691 888.819C569.435 892.626 573.106 895.097 576.913 894.353C580.688 893.616 583.16 889.944 582.416 886.137ZM500.125 875.478C499.387 871.703 495.716 869.232 491.941 869.969C488.134 870.713 485.663 874.384 486.4 878.159C487.144 881.966 490.815 884.438 494.622 883.694C498.397 882.956 500.868 879.285 500.125 875.478ZM551.631 865.415C550.894 861.64 547.223 859.169 543.447 859.907C539.64 860.65 537.169 864.322 537.907 868.097C538.651 871.904 542.322 874.375 546.129 873.631C549.904 872.894 552.375 869.222 551.631 865.415ZM525.878 870.447C525.14 866.672 521.469 864.201 517.694 864.938C513.887 865.682 511.416 869.353 512.153 873.128C512.897 876.935 516.568 879.406 520.375 878.662C524.15 877.925 526.622 874.254 525.878 870.447ZM505.156 901.231C504.418 897.456 500.747 894.985 496.972 895.723C493.165 896.466 490.694 900.138 491.432 903.913C492.175 907.72 495.847 910.191 499.654 909.447C503.429 908.71 505.9 905.038 505.156 901.231ZM556.663 891.169C555.925 887.394 552.254 884.923 548.479 885.66C544.672 886.404 542.201 890.075 542.938 893.85C543.682 897.657 547.353 900.128 551.16 899.384C554.935 898.647 557.406 894.976 556.663 891.169ZM530.438 930.169C534.213 929.432 536.684 925.76 535.941 921.953C535.203 918.178 531.532 915.707 527.757 916.445C523.95 917.188 521.479 920.86 522.216 924.635C522.96 928.442 526.631 930.913 530.438 930.169ZM556.191 925.138C559.966 924.4 562.438 920.729 561.694 916.922C560.956 913.147 557.285 910.676 553.51 911.413C549.703 912.157 547.232 915.828 547.969 919.603C548.713 923.41 552.384 925.882 556.191 925.138ZM530.909 896.2C530.172 892.425 526.501 889.954 522.726 890.691C518.919 891.435 516.447 895.106 517.185 898.881C517.929 902.688 521.6 905.16 525.407 904.416C529.182 903.678 531.653 900.007 530.909 896.2Z" fill="#F3ECF6"/>
<path fill-rule="evenodd" clip-rule="evenodd" d="M1365.65 821.515C1366.61 815.649 1362.65 810.096 1356.77 809.128C1350.94 808.168 1345.4 812.159 1344.44 818.025C1343.47 823.94 1347.43 829.494 1353.26 830.454C1359.14 831.422 1364.68 827.431 1365.65 821.515ZM1223.91 622.867C1218.08 621.908 1212.55 625.899 1211.58 631.764C1210.61 637.68 1214.57 643.233 1220.4 644.193C1226.29 645.161 1231.82 641.17 1232.79 635.254C1233.76 629.389 1229.8 623.836 1223.91 622.867ZM1217.33 662.884C1211.5 661.924 1205.96 665.915 1205 671.781C1204.03 677.696 1207.99 683.249 1213.82 684.209C1219.7 685.177 1225.23 681.186 1226.21 675.271C1227.17 669.405 1223.21 663.852 1217.33 662.884ZM1263.71 629.416C1257.88 628.456 1252.35 632.448 1251.38 638.313C1250.41 644.229 1254.37 649.782 1260.2 650.742C1266.09 651.71 1271.62 647.719 1272.59 641.803C1273.56 635.938 1269.6 630.384 1263.71 629.416ZM1257.13 669.433C1251.29 668.473 1245.76 672.464 1244.8 678.33C1243.82 684.245 1247.78 689.798 1253.62 690.758C1259.5 691.726 1265.03 687.735 1266.01 681.82C1266.97 675.954 1263.01 670.401 1257.13 669.433ZM1197.58 782.933C1191.74 781.973 1186.21 785.964 1185.24 791.83C1184.27 797.745 1188.23 803.298 1194.07 804.258C1199.95 805.226 1205.48 801.235 1206.45 795.32C1207.42 789.454 1203.46 783.901 1197.58 782.933ZM1210.74 702.9C1204.91 701.94 1199.38 705.931 1198.41 711.797C1197.44 717.712 1201.4 723.266 1207.24 724.226C1213.12 725.194 1218.65 721.203 1219.62 715.287C1220.59 709.421 1216.63 703.868 1210.74 702.9ZM1204.16 742.916C1198.33 741.956 1192.79 745.948 1191.83 751.813C1190.86 757.729 1194.82 763.282 1200.65 764.242C1206.53 765.21 1212.07 761.219 1213.04 755.303C1214 749.438 1210.04 743.884 1204.16 742.916ZM1237.37 789.482C1231.54 788.522 1226.01 792.513 1225.04 798.378C1224.07 804.294 1228.03 809.847 1233.86 810.807C1239.75 811.775 1245.28 807.784 1246.25 801.869C1247.22 796.003 1243.26 790.45 1237.37 789.482ZM1250.54 709.449C1244.71 708.489 1239.18 712.48 1238.21 718.346C1237.24 724.261 1241.2 729.814 1247.03 730.774C1252.92 731.742 1258.45 727.751 1259.42 721.836C1260.39 715.97 1256.43 710.417 1250.54 709.449ZM1243.96 749.465C1238.12 748.505 1232.59 752.496 1231.63 758.362C1230.65 764.278 1234.62 769.831 1240.45 770.791C1246.33 771.759 1251.86 767.768 1252.84 761.852C1253.8 755.986 1249.84 750.433 1243.96 749.465ZM1303.51 635.965C1297.68 635.005 1292.15 638.996 1291.18 644.862C1290.21 650.778 1294.17 656.331 1300 657.291C1305.89 658.259 1311.42 654.268 1312.39 648.352C1313.36 642.486 1309.39 636.933 1303.51 635.965ZM1296.93 675.981C1291.09 675.022 1285.56 679.013 1284.6 684.878C1283.62 690.794 1287.58 696.347 1293.42 697.307C1299.3 698.275 1304.83 694.284 1305.81 688.368C1306.77 682.503 1302.81 676.95 1296.93 675.981ZM1343.31 642.514C1337.48 641.554 1331.94 645.545 1330.98 651.411C1330.01 657.326 1333.97 662.88 1339.8 663.839C1345.68 664.808 1351.22 660.816 1352.19 654.901C1353.15 649.035 1349.19 643.482 1343.31 642.514ZM1385.4 701.466C1386.37 695.6 1382.41 690.047 1376.52 689.079C1370.69 688.119 1365.16 692.11 1364.19 697.976C1363.22 703.892 1367.18 709.445 1373.01 710.405C1378.9 711.373 1384.43 707.382 1385.4 701.466ZM1391.99 661.45C1392.95 655.584 1388.99 650.031 1383.11 649.063C1377.27 648.103 1371.74 652.094 1370.78 657.96C1369.8 663.875 1373.77 669.428 1379.6 670.388C1385.48 671.356 1391.01 667.365 1391.99 661.45ZM1336.73 682.53C1330.89 681.57 1325.36 685.562 1324.39 691.427C1323.42 697.343 1327.38 702.896 1333.22 703.856C1339.1 704.824 1344.63 700.833 1345.6 694.917C1346.57 689.052 1342.61 683.498 1336.73 682.53ZM1277.17 796.03C1271.34 795.07 1265.81 799.062 1264.84 804.927C1263.87 810.843 1267.83 816.396 1273.66 817.356C1279.55 818.324 1285.08 814.333 1286.05 808.417C1287.02 802.552 1283.06 796.998 1277.17 796.03ZM1290.34 715.998C1284.51 715.038 1278.98 719.029 1278.01 724.895C1277.04 730.81 1281 736.363 1286.83 737.323C1292.72 738.291 1298.25 734.3 1299.22 728.385C1300.19 722.519 1296.23 716.966 1290.34 715.998ZM1283.76 756.014C1277.92 755.054 1272.39 759.045 1271.43 764.911C1270.45 770.826 1274.41 776.38 1280.25 777.34C1286.13 778.308 1291.66 774.317 1292.64 768.401C1293.6 762.535 1289.64 756.982 1283.76 756.014ZM1316.97 802.579C1311.14 801.619 1305.61 805.61 1304.64 811.476C1303.67 817.392 1307.63 822.945 1313.46 823.905C1319.35 824.873 1324.88 820.882 1325.85 814.966C1326.82 809.1 1322.85 803.547 1316.97 802.579ZM1330.14 722.547C1324.31 721.587 1318.78 725.578 1317.81 731.444C1316.84 737.359 1320.8 742.912 1326.63 743.872C1332.51 744.84 1338.05 740.849 1339.02 734.934C1339.98 729.068 1336.02 723.515 1330.14 722.547ZM1372.23 781.499C1373.2 775.633 1369.24 770.08 1363.35 769.112C1357.52 768.152 1351.99 772.143 1351.02 778.009C1350.05 783.924 1354.01 789.477 1359.85 790.437C1365.73 791.405 1371.26 787.414 1372.23 781.499ZM1378.82 741.482C1379.78 735.617 1375.82 730.064 1369.94 729.096C1364.11 728.136 1358.57 732.127 1357.61 737.992C1356.64 743.908 1360.6 749.461 1366.43 750.421C1372.31 751.389 1377.84 747.398 1378.82 741.482ZM1323.56 762.563C1317.72 761.603 1312.19 765.594 1311.23 771.46C1310.25 777.375 1314.21 782.928 1320.05 783.888C1325.93 784.857 1331.46 780.865 1332.43 774.95C1333.4 769.084 1329.44 763.531 1323.56 762.563Z" fill="#F3ECF6"/>
<path fill-rule="evenodd" clip-rule="evenodd" d="M183.351 129.161C185.073 131.191 188.125 131.441 190.172 129.705C192.202 127.983 192.452 124.93 190.73 122.901C188.993 120.854 185.941 120.603 183.911 122.325C181.864 124.062 181.614 127.114 183.351 129.161ZM292.549 138.103C294.579 136.381 294.829 133.329 293.107 131.3C291.371 129.253 288.318 129.002 286.289 130.724C284.242 132.461 283.991 135.513 285.728 137.56C287.45 139.59 290.502 139.84 292.549 138.103ZM280.802 124.256C282.831 122.534 283.082 119.482 281.36 117.453C279.623 115.406 276.571 115.155 274.541 116.877C272.494 118.614 272.244 121.666 273.98 123.713C275.702 125.743 278.755 125.993 280.802 124.256ZM278.702 149.851C280.732 148.129 280.982 145.077 279.26 143.047C277.524 141 274.471 140.749 272.442 142.471C270.395 144.208 270.144 147.26 271.881 149.307C273.603 151.337 276.655 151.587 278.702 149.851ZM266.955 136.004C268.984 134.282 269.235 131.23 267.513 129.2C265.776 127.153 262.724 126.902 260.694 128.624C258.647 130.361 258.397 133.413 260.133 135.46C261.855 137.49 264.908 137.74 266.955 136.004ZM245.56 82.7154C247.59 80.9935 247.84 77.9412 246.118 75.9115C244.381 73.8645 241.329 73.6141 239.299 75.3361C237.252 77.0726 237.002 80.1249 238.739 82.1718C240.461 84.2016 243.513 84.452 245.56 82.7154ZM269.054 110.409C271.084 108.687 271.334 105.635 269.613 103.605C267.876 101.559 264.824 101.308 262.794 103.03C260.747 104.767 260.497 107.819 262.233 109.866C263.955 111.896 267.007 112.146 269.054 110.409ZM257.307 96.5624C259.337 94.8405 259.587 91.7882 257.865 89.7585C256.129 87.7115 253.076 87.4611 251.047 89.1831C249 90.9196 248.749 93.9719 250.486 96.0188C252.208 98.0486 255.26 98.299 257.307 96.5624ZM231.713 94.4627C233.743 92.7407 233.993 89.6885 232.271 87.6587C230.534 85.6118 227.482 85.3614 225.452 87.0834C223.405 88.8199 223.155 91.8721 224.892 93.9191C226.614 95.9488 229.666 96.1992 231.713 94.4627ZM255.207 122.157C257.237 120.435 257.487 117.383 255.766 115.353C254.029 113.306 250.977 113.055 248.947 114.777C246.9 116.514 246.65 119.566 248.386 121.613C250.108 123.643 253.16 123.893 255.207 122.157ZM243.46 108.31C245.49 106.588 245.74 103.536 244.018 101.506C242.282 99.4588 239.229 99.2084 237.2 100.93C235.153 102.667 234.902 105.719 236.639 107.766C238.361 109.796 241.413 110.046 243.46 108.31ZM264.855 161.598C266.885 159.876 267.135 156.824 265.413 154.794C263.677 152.747 260.624 152.497 258.595 154.219C256.548 155.955 256.297 159.007 258.034 161.054C259.756 163.084 262.808 163.335 264.855 161.598ZM253.108 147.751C255.137 146.029 255.388 142.977 253.666 140.947C251.929 138.9 248.877 138.65 246.847 140.372C244.8 142.108 244.55 145.16 246.286 147.207C248.008 149.237 251.061 149.488 253.108 147.751ZM251.008 173.345C253.038 171.623 253.288 168.571 251.566 166.541C249.829 164.494 246.777 164.244 244.748 165.966C242.701 167.702 242.45 170.755 244.187 172.802C245.909 174.831 248.961 175.082 251.008 173.345ZM218.592 170.702C220.314 172.732 223.367 172.982 225.414 171.246C227.443 169.524 227.694 166.471 225.972 164.442C224.235 162.395 221.183 162.144 219.153 163.866C217.106 165.603 216.856 168.655 218.592 170.702ZM230.34 184.549C232.062 186.579 235.114 186.829 237.161 185.093C239.191 183.371 239.441 180.318 237.719 178.289C235.982 176.242 232.93 175.991 230.9 177.713C228.854 179.45 228.603 182.502 230.34 184.549ZM239.261 159.498C241.29 157.776 241.541 154.724 239.819 152.694C238.082 150.647 235.03 150.397 233 152.119C230.953 153.855 230.703 156.908 232.439 158.955C234.161 160.984 237.214 161.235 239.261 159.498ZM217.866 106.21C219.896 104.488 220.146 101.436 218.424 99.406C216.687 97.3591 213.635 97.1087 211.605 98.8306C209.558 100.567 209.308 103.619 211.045 105.666C212.767 107.696 215.819 107.947 217.866 106.21ZM241.36 133.904C243.39 132.182 243.64 129.13 241.919 127.1C240.182 125.053 237.13 124.803 235.1 126.525C233.053 128.261 232.803 131.313 234.539 133.36C236.261 135.39 239.313 135.641 241.36 133.904ZM229.613 120.057C231.643 118.335 231.893 115.283 230.171 113.253C228.435 111.206 225.382 110.956 223.353 112.678C221.306 114.414 221.055 117.466 222.792 119.513C224.514 121.543 227.566 121.794 229.613 120.057ZM204.019 117.957C206.049 116.235 206.299 113.183 204.577 111.153C202.84 109.106 199.788 108.856 197.758 110.578C195.711 112.314 195.461 115.367 197.198 117.414C198.92 119.443 201.972 119.694 204.019 117.957ZM227.513 145.651C229.543 143.929 229.793 140.877 228.071 138.847C226.335 136.8 223.283 136.55 221.253 138.272C219.206 140.008 218.956 143.061 220.692 145.108C222.414 147.137 225.466 147.388 227.513 145.651ZM195.098 143.008C196.82 145.038 199.872 145.288 201.919 143.552C203.949 141.83 204.199 138.777 202.477 136.748C200.741 134.701 197.688 134.45 195.659 136.172C193.612 137.909 193.361 140.961 195.098 143.008ZM206.845 156.855C208.567 158.885 211.619 159.135 213.666 157.399C215.696 155.677 215.946 152.624 214.224 150.595C212.488 148.548 209.436 148.297 207.406 150.019C205.359 151.756 205.109 154.808 206.845 156.855ZM215.766 131.804C217.796 130.082 218.046 127.03 216.324 125C214.588 122.953 211.535 122.703 209.506 124.425C207.459 126.161 207.208 129.214 208.945 131.261C210.667 133.29 213.719 133.541 215.766 131.804Z" fill="#FFEA9E" fill-opacity="0.46"/>
</g>
<defs>
<clipPath id="clip0">
<rect width="1440" height="1024" fill="white"/>
</clipPath>
</defs>
</svg>
